<?xml version="1.0" encoding="UTF-8"?>
<svg width="120px" height="31px" viewBox="0 0 120 31" version="1.1" xmlns="http://www.w3.org/2000/svg" xmlns:xlink="http://www.w3.org/1999/xlink">
    <title>A8F15C5F-DF0E-42F9-A1C7-6B972758FA55</title>
    <g id="Desktop" stroke="none" stroke-width="1" fill="none" fill-rule="evenodd">
        <g id="0.0_Homepage---Desktop-Carousel-3" transform="translate(-43.000000, -67.000000)" fill-rule="nonzero">
            <g id="Logos/Abbott/Desktop/Abbott-logo" transform="translate(43.000000, 67.000000)">
                <g id="Group" transform="translate(0.010258, 0.014356)">
                    <path d="M32.493996,0 L0,0 L0,5.05013968 L30.8718489,5.05013968 L30.8718489,5.05460317 C31.7655268,5.05460317 32.4790855,5.77937778 32.4790855,6.67919365 L32.4790855,23.6376889 L32.4751491,23.6520444 C32.469662,24.5478794 31.7489463,25.2678286 30.8648111,25.2678286 L6.60369781,25.2678286 C5.71550696,25.2678286 4.98858847,24.5420889 4.98858847,23.6375683 L4.98858847,16.7865905 C4.98858847,15.8867746 5.71550696,15.1563302 6.60369781,15.1563302 L27.4764215,15.1563302 L27.4764215,10.112946 L4.97904573,10.112946 C2.22918489,10.112946 0,12.3632698 0,15.1423365 L0,25.2820635 C0,28.0630603 2.22918489,30.3166413 4.97904573,30.3166413 L32.493996,30.3166413 C35.2462425,30.3166413 37.4722068,28.0630603 37.4722068,25.2820635 L37.4722068,5.03614603 C37.4722068,2.25551111 35.2462425,0 32.493996,0" id="Shape" fill="#159BD7"></path>
                    <g transform="translate(44.966720, 7.159321)" fill="#FFFFFF" id="Shape">
                        <path d="M6.0295825,8.57702222 L9.40902584,8.57702222 L7.73499006,3.50480635 L7.68858847,3.50480635 L6.0295825,8.57702222 Z M10.9522068,0 L14.8450497,11.7762603 C15.3070378,13.2130222 15.6341153,13.5454921 16.4453678,13.5454921 L17.2368191,13.5454921 L17.2368191,15.6186032 L8.73673956,15.6186032 L8.73673956,13.5454921 L9.43383698,13.5454921 C10.1326044,13.5454921 10.7137575,13.4516381 10.7137575,13.1955302 C10.7137575,12.9535365 10.690497,12.6947746 10.5969781,12.3405905 L10.1110139,10.6484444 L5.3589662,10.6484444 L5.0749503,11.5912063 C4.82075547,12.413454 4.72640159,12.7625714 4.72640159,13.0933524 C4.72640159,13.473473 5.544334,13.5454921 6.1777336,13.5454921 L6.84751491,13.5454921 L6.84751491,15.6186032 L0,15.6186032 L0,13.5454921 L0.793121272,13.5454921 C1.60854871,13.5454921 1.92906561,13.2130222 2.40178926,11.7762603 L6.29129225,0 L10.9522068,0 Z"></path>
                        <path d="M22.4583698,10.101727 C22.4583698,12.5088762 22.9924056,13.9432254 24.2954672,13.9432254 C25.6068787,13.9432254 26.1367396,12.5088762 26.1367396,10.101727 C26.1367396,7.7012127 25.6068787,6.26529524 24.2954672,6.26529524 C22.9924056,6.26529524 22.4583698,7.7012127 22.4583698,10.101727 L22.4583698,10.101727 Z M18.5879523,2.89861587 C18.5879523,2.23307302 18.4256064,1.88383492 17.7500994,1.88383492 L16.6796421,1.88383492 L16.6796421,0 L22.4583698,0 L22.4583698,5.86261587 C23.3185288,4.87292698 24.4155865,4.23742222 25.4586083,4.23742222 C28.9541153,4.23742222 30.2563419,6.99875556 30.2563419,10.101727 C30.2563419,13.2130222 28.9541153,15.9677206 25.4586083,15.9677206 C23.9916501,15.9677206 22.6859642,15.4503175 21.8737575,14.1542159 L21.2007555,15.6202921 L18.5879523,15.6202921 L18.5879523,2.89861587 Z"></path>
                        <path d="M35.5252485,10.101727 C35.5252485,12.5088762 36.0658449,13.9432254 37.3672366,13.9432254 C38.6729225,13.9432254 39.206004,12.5088762 39.206004,10.101727 C39.206004,7.7012127 38.6728032,6.26529524 37.3672366,6.26529524 C36.0658449,6.26529524 35.5252485,7.7012127 35.5252485,10.101727 L35.5252485,10.101727 Z M31.6563817,2.89861587 C31.6563817,2.23307302 31.4923658,1.88383492 30.8235388,1.88383492 L29.7497416,1.88383492 L29.7497416,0 L35.5252485,0 L35.5252485,5.86261587 C36.3895825,4.87292698 37.4824652,4.23742222 38.530497,4.23742222 C42.0258847,4.23742222 43.3315706,6.99875556 43.3315706,10.101727 C43.3315706,13.2130222 42.0258847,15.9677206 38.530497,15.9677206 C37.0634195,15.9677206 35.7578529,15.4503175 34.9439761,14.1542159 L34.2659642,15.6202921 L31.6563817,15.6202921 L31.6563817,2.89861587 L31.6563817,2.89861587 Z"></path>
                        <path d="M48.5720875,10.1025714 C48.5720875,12.8815175 49.0605567,14.0837651 50.4589264,14.0837651 C51.8547913,14.0837651 52.3424254,12.8815175 52.3424254,10.1025714 C52.3424254,7.3236254 51.8547913,6.12294603 50.4589264,6.12294603 C49.0605567,6.12294603 48.5720875,7.3236254 48.5720875,10.1025714 M56.4687078,10.1025714 C56.4687078,13.873619 53.927833,15.9677206 50.4589264,15.9677206 C46.982505,15.9677206 44.4475944,13.873619 44.4475944,10.1025714 C44.4475944,6.33393651 46.9826243,4.23742222 50.4589264,4.23742222 C53.927833,4.23742222 56.4687078,6.33393651 56.4687078,10.1025714"></path>
                        <path d="M73.0771372,10.2934159 L73.0771372,12.1304444 C73.0771372,13.2130222 72.8460835,13.8535937 71.9602783,13.8535937 C71.4254076,13.8535937 71.1712127,13.4500698 71.1712127,12.9535365 L71.1712127,6.47640635 L74.0308151,6.47640635 L74.0308151,4.59088254 L71.171332,4.59088254 L71.171332,0.215092063 L68.8607952,0.215092063 C68.6719682,2.16684444 68.0685089,4.5907619 65.7396024,4.5907619 L62.1067992,4.5907619 L62.1067992,0.215092063 L59.8027038,0.215092063 C59.6147117,2.16684444 59.0079125,4.5907619 56.6815109,4.5907619 L56.6815109,6.47628571 L58.2412724,6.47628571 L58.2412724,12.3882413 C58.2412724,14.7920127 59.5684294,15.9676 61.9635388,15.9676 C64.765169,15.9676 65.8763022,14.6991238 65.8763022,12.3882413 L65.8763022,10.2932952 L64.0190457,10.2932952 L64.0190457,12.1303238 C64.0190457,13.2129016 63.7839364,13.853473 62.9014712,13.853473 C62.3608748,13.853473 62.1066799,13.4499492 62.1066799,12.9534159 L62.1066799,6.47628571 L67.3074751,6.47628571 L67.3074751,12.3882413 C67.3074751,14.7920127 68.6287873,15.9676 71.0289066,15.9676 C73.8230219,15.9676 74.9440557,14.6991238 74.9440557,12.3882413 L74.9440557,10.2932952 L73.0771372,10.2932952 L73.0771372,10.2934159 Z"></path>
                    </g>
                </g>
            </g>
        </g>
    </g>
</svg>